<?xml version="1.0" encoding="utf-8"?>
<!-- Generator: Adobe Illustrator 23.0.0, SVG Export Plug-In . SVG Version: 6.00 Build 0)  -->
<svg version="1.1"
	 id="svg2" xmlns:cc="http://creativecommons.org/ns#" xmlns:dc="http://purl.org/dc/elements/1.1/" xmlns:rdf="http://www.w3.org/1999/02/22-rdf-syntax-ns#" xmlns:svg="http://www.w3.org/2000/svg"
	 xmlns="http://www.w3.org/2000/svg" xmlns:xlink="http://www.w3.org/1999/xlink" x="0px" y="0px" viewBox="0 0 99.3 99.3"
	 style="enable-background:new 0 0 99.3 99.3;" xml:space="preserve">
<style type="text/css">
	.st0{fill:#FFFFFF;}
	.st1{fill:#009900;stroke:#67AA79;stroke-width:1.420000e-02;}
</style>
<rect y="0" class="st0" width="99.3" height="99.3"/>
<path class="st1" d="M85,43.4v-4c-0.5-7.7-2.5-13.6-6.1-17.7c-1.3-1.6-3-3-4.9-4.2c-1.9-1.3-3.9-2.1-6-2.6c-2.3-0.6-4.5-0.9-6.7-0.9
	c-3.6,0-6.9,0.8-10,2.3c-3,1.6-5.7,3.8-7.9,6.5c-3.5,0-7.6,1.2-12.1,3.5c-3.7,1.9-6.8,4.2-9.3,7s-4.4,5.9-5.8,9.4
	c-1.3,3.6-1.9,7.4-1.9,11.4c0,5.9,1.3,11.2,3.9,16c2.6,4.9,6.2,8.7,10.8,11.3c4.6,2.7,9.7,4,15.2,4c10.7-0.4,18.7-2.1,24.1-5.2
	c7.4-4.5,12.6-12.2,15.3-23C84.6,53.6,85,49,85,43.4z M44.3,24c0.4-0.1,1-0.1,1.8-0.1c2.9,0,5.6,0.5,8.1,1.6
	c2.5,1.2,4.7,2.6,6.6,4.4c1.8,1.8,3.3,4,4.4,6.5c1,2.6,1.6,5.2,1.6,8c0,0.9,0,1.6-0.1,2c-2.9,3.6-6.7,5.4-11.3,5.4
	c-2.6,0-5.1-0.7-7.4-2.1c-2.3-1.4-4.1-3.4-5.4-5.8c-1.3-2.5-2-5.2-2-8.1C40.6,31.8,41.8,27.9,44.3,24z M75.6,59.6
	c-1.3,3.8-2.5,6.5-3.5,7.9c-1.6,2.5-3.6,5-5.9,7.4c-1.7,1.8-5.5,4.2-11.4,7c-3.1,1.5-6.8,2.3-11.1,2.3c-5,0-9.7-1.2-13.9-3.8
	c-4.3-2.6-7.6-6.1-10.1-10.5c-2.4-4.4-3.7-9.2-3.7-14.4c0-5.1,1.1-9.9,3.5-14.6c2.3-4.6,5.5-8.3,9.6-11.3c4-2.9,8.5-4.7,13.5-5.3
	c-2.3,4.4-3.4,8.3-3.4,11.5c0,3.1,0.8,6.1,2.2,8.8c1.3,2.6,3.3,4.6,5.8,6.2c2.5,1.5,5.2,2.2,8.1,2.2c2.2,0,4-0.3,5.6-1
	c1.5-0.5,3.4-1.7,5.7-3.5c-0.5,2.5-1.1,4.6-1.8,6.5l-0.6,1.1c-1.2-0.2-2.2-0.4-2.8-0.5c-0.6-0.2-1.2-0.3-1.7-0.4
	c-0.5-0.1-1.1-0.2-1.8-0.3c-0.7-0.1-1.7-0.1-3.1-0.2c-2.9-0.1-5,0.1-6.3,0.7c-1.3,0.6-2,1-2.1,1.2c-2.5,1.9-3.3,4.7-2.4,8.6
	c1.2,2.8,4,4.1,8.4,3.8c3.3-0.5,6.4-2.5,9.4-5.8c1.4-1.4,2.5-2.9,3.4-4.5c1.3,0.3,2.5,0.5,3.4,0.6c1,0.1,1.8,0.1,2.6,0.1
	s1.5-0.2,2.3-0.5c0.7-0.3,1.6-0.7,2.6-1.1C76.1,58.3,75.9,59,75.6,59.6z M62.9,58.4c-0.3,0.5-0.7,1.2-1.3,1.9
	c-2.1,2.5-4.5,4.5-7.2,6c-2.2,1.1-3.9,1.3-5.2,0.7c-1.9-0.2-3.1-1.4-3.5-3.5c-0.1-2.4,0.7-4.1,2.5-5.3l1.7-0.6
	c2.9-0.8,5.5-1,7.7-0.6C59.9,57.4,61.6,57.8,62.9,58.4z M78.5,42.3c-0.2,2.9-0.4,5.4-0.6,7.6c-0.3,1.9-0.7,3.9-1.1,5.8
	c-1.3,0.2-2.4,0.4-3.2,0.6c-0.8,0.1-1.5,0.3-2.2,0.4c-0.7,0.1-1.4,0.1-2.2,0.1c-0.8-0.1-1.8-0.2-3.2-0.4c1.4-3.4,2.2-6.7,2.3-9.9
	c1.2-1.4,2.1-2.9,2.9-4.4c0.8-1.6,1.5-3.5,2.1-5.7l-1.1-0.2c-0.9,2.6-1.6,4.3-2,5.2c-0.3,0.8-1,1.8-2,3.2c-0.6-6.2-2.5-11.2-6-15
	c-1.8-2-4.3-3.7-7.3-5.1c-3.1-1.3-6-1.9-8.7-1.9h-1c2.4-2.5,4.8-4.4,7.4-5.6c2.7-1.1,5.5-1.7,8.6-1.7c3.5-0.1,6.5,0.8,9.1,2.4
	c2.7,1.6,4.8,3.9,6.3,6.9s2.2,6.4,2.2,10.3C78.8,36.5,78.7,38.9,78.5,42.3z"/>
</svg>
