<?xml version="1.0" encoding="utf-8"?>
<!-- Generator: Adobe Illustrator 23.0.0, SVG Export Plug-In . SVG Version: 6.00 Build 0)  -->
<svg version="1.1"
	 id="svg2" xmlns:cc="http://creativecommons.org/ns#" xmlns:dc="http://purl.org/dc/elements/1.1/" xmlns:rdf="http://www.w3.org/1999/02/22-rdf-syntax-ns#" xmlns:svg="http://www.w3.org/2000/svg"
	 xmlns="http://www.w3.org/2000/svg" xmlns:xlink="http://www.w3.org/1999/xlink" x="0px" y="0px" viewBox="0 0 164.4 125.8"
	 style="enable-background:new 0 0 164.4 125.8;" xml:space="preserve">
<style type="text/css">
	.st0{fill-rule:evenodd;clip-rule:evenodd;fill:#FBE116;stroke:#FBE116;stroke-width:0.5669;}
	.st1{fill-rule:evenodd;clip-rule:evenodd;fill:#BCD800;stroke:#BCD800;stroke-width:0.5669;}
	.st2{fill-rule:evenodd;clip-rule:evenodd;fill:#ECF38B;stroke:#ECF38B;stroke-width:0.5669;}
	.st3{fill-rule:evenodd;clip-rule:evenodd;fill:#E10886;stroke:#E10886;stroke-width:0.5669;}
	.st4{fill-rule:evenodd;clip-rule:evenodd;fill:#E41346;stroke:#E41346;stroke-width:0.5669;}
	.st5{fill-rule:evenodd;clip-rule:evenodd;fill:#FA853C;stroke:#FA853C;stroke-width:0.5669;}
	.st6{fill-rule:evenodd;clip-rule:evenodd;fill:#FE8A64;stroke:#FE8A64;stroke-width:0.5669;}
	.st7{fill-rule:evenodd;clip-rule:evenodd;fill:#FDC900;stroke:#FDC900;stroke-width:0.5669;}
	.st8{fill-rule:evenodd;clip-rule:evenodd;fill:#00A759;stroke:#00A759;stroke-width:0.5669;}
	.st9{fill-rule:evenodd;clip-rule:evenodd;fill:#67AA79;stroke:#67AA79;stroke-width:0.5669;}
	.st10{fill-rule:evenodd;clip-rule:evenodd;fill:#4E897C;stroke:#4E897C;stroke-width:0.5669;}
	.st11{fill-rule:evenodd;clip-rule:evenodd;fill:#AFDCF2;stroke:#AFDCF2;stroke-width:0.5669;}
	.st12{fill-rule:evenodd;clip-rule:evenodd;fill:#0093CB;stroke:#0093CB;stroke-width:0.5669;}
	.st13{fill-rule:evenodd;clip-rule:evenodd;fill:#7B96D1;stroke:#7B96D1;stroke-width:0.5669;}
	.st14{fill-rule:evenodd;clip-rule:evenodd;fill:#64B1B9;stroke:#4E897C;stroke-width:0.5669;}
	.st15{fill-rule:evenodd;clip-rule:evenodd;fill:#67AA79;stroke:#67AA79;stroke-width:1.420000e-02;}
	.st16{display:none;fill-rule:evenodd;clip-rule:evenodd;fill:#BCD800;}
</style>
<path id="path4" class="st0" d="M106.1,65.5c2.1,3.1,4.2,5.5,5.4,9.1c0.7,0-3.7-8.4-4.7-9.8C93.5,44.5,96.4,26.3,96.2,29.1
	C95.9,33.2,91.8,41.2,106.1,65.5z"/>
<path id="path6" class="st1" d="M133.3,74.7c0.3-1.2,1.8-1.1,1.9,0.3c0,0.4-0.2,1.6-0.4,2c-0.3,0.7-0.6,1.2-1.2,1.9
	c-0.5,0.6-1.2,1.2-1.4,1.8c-0.2,0.5-0.3,1-0.2,1.3l0,0.1l0,0.1l-0.1,0.2l0.1,0c0.1,0,2.8-3.9,3-0.2c0,0.1-0.7,1.5-0.7,2.1
	c0,0.5,0.6,0.6,0.9,0.2c0.8-1.1,1.4-2.5,2.2-2.9c0.8-0.4,1.2-0.6,2.2-0.3c1,0.9,0.6,2.2,0.2,3c-2.2,3.7-8.3,4.8-11.6,1.8
	c-1.5-0.9-2.2-2.6-2.5-4.3c-0.3-1.6,0-3.7,0.9-6.1l0,0c2.4-7.5,7.5-14.8,13.6-22.5c7.6-9.6,20-25.8,21.3-38.4
	c0.3-2.6,0.4-5.4-0.9-8.1c-0.9-1.8-1.8-3-3.6-3.5c-0.2-0.1-0.4,0-0.7,0c-5,0.1-4.9,7.8-3.8,11.4c0.6,1.9,1.5,3.9,2.3,4.3
	c0.4,0.2,1.3-0.1,1.1-0.8c-0.2-1.4-1.3-0.4-1.5-1.3c-0.3-0.9-0.3-3.3,0.8-3.5c1.4-0.2,3.2,4.5,1.3,5.8c-2.2,1.8-4.5-2.9-5.3-5.7
	c-0.4-1.6-0.4-3.4-0.2-5.1c0.4-3.2,1.7-6.4,5.2-6.6c2-0.1,4,1.3,5,3.1c1.6,3.1,1.1,7.7,0.9,10c-0.4,3.3-1.3,6.5-2.7,9.6
	c-3.5,11-10.8,20.5-17.8,29.2c-6.1,7.6-12.2,14.8-14.6,22.2c-1.8,4.8-0.4,9.8,5.3,10.8c0.9,0.2,1.8,0.2,2.7,0.1
	c1.3-0.2,3.8-1.8,4.5-2.9c0.4-0.7-0.4-2.3-2-1.4c-0.6,0.3-1.6,1.9-2.3,2.6c-1.7,1.8-3,0-1.5-1c0.8-0.5,0.6-3.9-0.7-2
	c-0.3,0.4-0.4,1.2-0.9,1.3c-0.5,0.3-0.8,0.3-1,0l0,0c-0.7-1.1,0.8-3.8,1.6-4.7c0.5-0.6,1.1-1.2,1.3-1.9c1-1.4,0.4-1.5,0.4-1.5
	C134.1,75.5,133.3,75.5,133.3,74.7L133.3,74.7z M131.8,82.6L131.8,82.6L131.8,82.6C131.8,82.7,131.8,82.7,131.8,82.6L131.8,82.6z"/>
<path id="path8" class="st0" d="M142.4,54.4c0.6,0.2,0.5,1,0.7,1.5c0.4,1.4-0.4,4.4-1.2,5.5c-4.1,4.9-10.3,8.9-11.7,15.9
	c-0.3,0.3-0.1,0.4-0.3-0.2c1.6-6.7,6.8-11,11-16.3c0.9-1.1,1.3-2.4,1.6-3.5c0.2-0.5,0.2-1,0.1-1.3c-0.1-0.5-1.4-0.2-1.6-1.3
	C140.8,54.3,142.2,54.3,142.4,54.4L142.4,54.4z"/>
<path id="path10" class="st2" d="M137,66.5c1.2-1,1.7-1.1,1.6,0c0,3.2-3.1,5.3-4.1,6.5c-2,2.2-3.9,4.3-4.5,9.2
	c-0.3,0.4-0.6,0.3-0.8-0.1c0.8-6.7,7.3-12.2,8.5-14.9c0.4-0.9,0.2-1-0.7-0.8L137,66.5z"/>
<path id="path12" class="st3" d="M154.1,41.4c1.6-1,1.1,1.1,0.1,3.4c-3.4,5.2-6.8,8.9-10.9,13.6"/>
<path id="path14" class="st4" d="M154.3,40.8c0.3-0.2,0.9-0.6,1.1-0.3c3.5,2.2-9.2,14.8-11.6,17.7l-0.7,0.4c0.6-0.7,1.3-1.5,2-2.3
	c3.3-3.7,6.1-6.6,8.8-10.9c1.2-2.2,1.4-3.5,1.2-4.1C155.1,40.7,154.4,41,154.3,40.8L154.3,40.8z"/>
<path id="path16" class="st5" d="M148.6,52.7c0.5-0.6,1.1-1,1.4-0.7c1.2,0.6-2.4,6.3-3,7.2c-2.7,4.1-6,7.3-9.4,10.4l-0.2,0.1
	l0.2-0.6c5.6-5.3,7.9-8.6,11.4-15.6C149.6,52.7,149.9,52.1,148.6,52.7z"/>
<path id="path18" class="st6" d="M144.6,62.2c1-0.8,1.1-0.8,1.4-0.2c0.5,4.5-8.3,11.8-11.1,15l-0.1,0c1.8-2,11.4-12.2,10.5-14.6
	c0-0.1-0.3,0-0.8,0.3L144.6,62.2L144.6,62.2z"/>
<path id="path20" class="st7" d="M140.2,71.6c1.3-1.1,1.1-0.8,1.5-0.4c2.2,2-6,8.8-7.2,10l-0.3,0c3.2-2.5,7.9-8.1,6.5-9.5
	c-0.1-0.1-0.6,0.2-1.5,0.9L140.2,71.6L140.2,71.6z"/>
<path id="path22" class="st8" d="M96.6,63.7c4.7,0,7.6,0.4,10.3,1c4,1,6.5,2.7,8,4.5c2.7,2.9,2.5,6.7,2,10.3l0,0.2
	c-0.7,4.9-1.5,10.3,6.6,16.6c0.1,0.5,0,0.7-0.5,0.6c-9.4-5.7-7.7-12.2-6.9-17.3c0.5-3.5,0.8-7.1-1.7-9.8c-2.5-2.8-7.6-4.8-17.8-5.3
	C96.2,64.2,96.3,63.9,96.6,63.7L96.6,63.7z"/>
<path id="path24" class="st9" d="M114,66.9c2.2-2.3,5.1-3,7.2-0.5c3.8,4.6-0.8,6.8,2.4,10c0.1,0.3,0,0.2-0.3,0.1
	c-2.1-1.9-1.8-2.7-1.4-3.9c1.3-3.8-3-9.6-7.7-5.7C113.9,67,113.9,67.3,114,66.9L114,66.9z"/>
<path id="path26" class="st2" d="M104.1,62.3c-0.3-0.6-1.8-2.2-2.9-1.8c-0.8,0.5-0.1,2.7,0.1,3.3c1.9,4.7,5.5,9.9,8.6,13.9l-0.2,0.1
	c-3.2-4-6.7-8.7-9.2-13.7c-0.5-1.1-1.2-3.8,0.1-4.6c1.4-0.8,3.2,1.8,3.7,2.7C104.4,62.6,104.2,62.5,104.1,62.3L104.1,62.3z"/>
<path id="path28" class="st1" d="M102.4,69.6c-0.1,0-0.1,0-0.2,0.1c0.6,1.8,6.5,9.2,7.6,10.7l-0.3-0.2c-1.5-2.1-8.4-9.6-8.1-11
	C102,67.8,103.6,69.2,102.4,69.6L102.4,69.6z"/>
<path id="path30" class="st9" d="M105,76.4c-0.1,0-0.1,0-0.2,0.1c0.8,2.5,4.3,5.7,6.5,7c0,0.1,0,0.1-0.2,0.1
	c-1.7-0.7-7.6-6.1-7.1-7.6C104.6,74.6,106.1,76,105,76.4L105,76.4z"/>
<path id="path32" class="st10" d="M108.7,83.5c-0.1,0-0.1,0-0.2,0.1c0.8,2.5,3.5,3.8,5.8,5.2c0,0.1,0,0.1-0.2,0.1
	c-1.7-0.7-6.8-4.2-6.4-5.7C108.3,81.7,109.7,83.1,108.7,83.5L108.7,83.5z"/>
<path id="path34" class="st8" d="M126.1,85.4c1.7,2.7,3.6,3.6,5.5,4.1c1.9,0.5,3.9,0.4,6-0.7c0.9,0,0.6,0,0.4,0.2
	c-2.3,1.2-4.5,1.9-6.7,1.4c-1.9-0.5-3.7-1.8-5.4-4.1c-0.3-0.5-0.4-0.6-0.6-1.3C125.4,84.7,125.7,84.7,126.1,85.4L126.1,85.4z"/>
<path id="path36" class="st10" d="M135.9,93.3c3.2,2,9.9,6.3,11.2,9.9c0.3,0.8,0.2,1.6-0.5,2.1c-1.5,1.3-3.3-0.4-2.1-0.5
	c0.7-0.1,1.8,0.4,1.5-1.3c-0.2-0.6-0.7-1.7-1.4-2.5c-2.4-2.7-6.5-5.9-9.2-7.5c-0.4-0.2-0.4-0.4-0.1-0.4
	C135.6,93.1,135.7,93.1,135.9,93.3z"/>
<path id="path38" class="st11" d="M146.2,109.7c0.2,1-0.2,1.8-1.1,2.3c-2.1,1.1-3.1-1.3-1.7-1.1c0.9,0,1.6-0.1,1.4-1.2
	c-0.7-4.8-7.3-13-11.9-13.9c-0.4-0.4-0.2-0.8,0.1-0.8C135.5,95.2,143.9,102.6,146.2,109.7L146.2,109.7z"/>
<path id="path40" class="st12" d="M134.1,99.4c3.3,1.7,6.8,8,8.9,12.8c0.4,1,1.7,5.1,0.8,5.9c-0.2,0.3-1,0.6-1.5,0.3
	c-0.5-0.3-0.7-0.8-0.2-1.2c0.5-0.1,0.4,0.2,0.6,0.2c0.6-0.1,0.3-0.9,0.2-1.8c-0.2-1-0.6-2.2-1.2-3.6c-2-4.7-4.8-10.6-7.9-12.3
	C133.6,99.5,133.7,99.4,134.1,99.4L134.1,99.4z"/>
<path id="path42" class="st13" d="M134.9,102.9c1.5,2.1,3.4,5.6,5,9.4c0.7,1.7,3.9,7.9,1.9,9.3c-0.5,0.3-1.3-0.1-1.7-0.4
	c-0.4-0.2-0.7-0.7-1-1.2c-1-1.4-1.9-3.3-2-3.9c-0.6-1.5-1.1-3.1-1.6-4.8c-0.5-1.7-1.1-3.5-1.6-5.3c-0.3-0.6,0.1-1,0.2-0.3
	c0,0.6,0.7,3.1,1.5,5.6c0.7,2,1.5,3.8,1.7,4.5c0.3,0.6,3.4,6.3,4.2,4.3c0.4-1.2-0.4-4.2-1.8-7.4c-1.6-3.8-3.9-7.8-5.4-9.9
	c-0.3-0.5-0.6-0.8-0.8-1C132.8,100.7,134.5,102.3,134.9,102.9L134.9,102.9z"/>
<path id="path44" class="st14" d="M130.4,101.4c0.7,1.6,0.8,3.6,1.2,5.6c0.8,3.4,2.1,6.6,4.4,8c0.9,0.6,1.3,0.8,0.7,1.1
	c-3.5-1-4.4-4.9-5.4-9c-0.4-1.9-0.6-4-1.2-5.5C130,101.2,130.1,101.2,130.4,101.4z"/>
<path id="path46" class="st10" d="M128,100.8c0.5,0.8,0.7,2,1,3.2c0.4,1.5,1.1,2.9,2,3.6c0.1,0.4,0,0.3-0.4,0.1
	c-0.8-1.1-1.6-2.2-2-3.9c-0.3-1.1-0.4-2-0.8-2.7C127.4,100.8,127.6,100.5,128,100.8L128,100.8z"/>
<path id="path48" class="st10" d="M127,100.3c-0.4,1-0.3,2.5,0.4,3.6c0.2,0.4,1.2,2.1,2.2,2.3c-0.2,0.1-0.3,0.1-0.5,0.1
	c-0.3-0.1-0.6-0.3-1-0.7c-0.4-0.3-0.7-0.8-1-1.4c-0.8-1.3-1.3-2.9-0.8-4.3C126.6,99.6,126.9,99.7,127,100.3L127,100.3z"/>
<path id="path50" class="st9" d="M129.7,94.4c0.2,0,0.4-0.2,0.4-0.4c0-0.2-0.2-0.4-0.4-0.4c-0.1,0-0.1,0-0.2,0
	c-0.4,0-1.1-0.1-1.6,0.2c-0.6,0.4-1.2,1.1-0.2,2.7c0.1,0.2,0.7,0.3,0.8,0.2c0.2-0.1,0.2-0.4,0.2-0.6c-0.7-1.1-0.7-1.6-0.4-1.7
	c0.3-0.1,0.8-0.1,1.2-0.1C129.5,94.4,129.7,94.4,129.7,94.4L129.7,94.4z"/>
<path id="path52" class="st9" d="M126,95.6c0.2,0,0.4-0.2,0.4-0.4s-0.2-0.4-0.4-0.4c-0.1,0-0.1,0-0.1,0l0,0c-0.4,0-0.9,0-1.3,0.2
	c-0.6,0.3-1.2,1.1-0.1,3c0.1,0.2,0.7,0.3,0.9,0.2c0.2-0.1,0.2-0.4,0.2-0.6c-0.8-1.3-0.7-1.7-0.5-1.9c0.2-0.1,0.6-0.1,0.8-0.1
	C126,95.6,126,95.6,126,95.6L126,95.6z"/>
<path id="path54" class="st9" d="M118,67.5c0.4,0,0.7,0.4,0.7,0.8l0,0c0,0.4-0.3,0.7-0.8,0.7c-0.4,0-0.7-0.4-0.7-0.8
	C117.3,67.8,117.6,67.4,118,67.5z"/>
<path id="path56" class="st15" d="M34,91.2c-1.8,1.2-2.6,2.9-2.5,5.3c0.4,2.1,1.6,3.3,3.5,3.5c1.3,0.6,3,0.4,5.2-0.7
	c2.7-1.5,5.1-3.5,7.2-6c0.6-0.7,1-1.4,1.3-1.9c-1.3-0.6-3-1-5.3-1.4c-2.2-0.4-4.8-0.2-7.7,0.6L34,91.2L34,91.2z M52.5,79.4
	c0.1-0.4,0.1-1.1,0.1-2c0-2.8-0.6-5.4-1.6-8c-1.1-2.5-2.6-4.7-4.4-6.5c-1.9-1.8-4.1-3.2-6.6-4.4c-2.5-1.1-5.2-1.6-8.1-1.6
	c-0.8,0-1.4,0-1.8,0.1c-2.5,3.9-3.7,7.8-3.7,11.8c0,2.9,0.7,5.6,2,8.1c1.3,2.4,3.1,4.4,5.4,5.8s4.8,2.1,7.4,2.1
	C45.8,84.8,49.6,83,52.5,79.4L52.5,79.4z M63.7,82.9c0.2-2.2,0.4-4.7,0.6-7.6c0.2-3.4,0.3-5.8,0.3-7.4c0-3.9-0.7-7.3-2.2-10.3
	s-3.6-5.3-6.3-6.9c-2.6-1.6-5.6-2.5-9.1-2.4c-3.1,0-5.9,0.6-8.6,1.7c-2.6,1.2-5,3.1-7.4,5.6h1c2.7,0,5.6,0.6,8.7,1.9
	c3,1.4,5.5,3.1,7.3,5.1c3.5,3.8,5.4,8.8,6,15c1-1.4,1.7-2.4,2-3.2c0.4-0.9,1.1-2.6,2-5.2l1.1,0.2c-0.6,2.2-1.3,4.1-2.1,5.7
	c-0.8,1.5-1.7,3-2.9,4.4c-0.1,3.2-0.9,6.5-2.3,9.9c1.4,0.2,2.4,0.3,3.2,0.4c0.8,0,1.5,0,2.2-0.1s1.4-0.3,2.2-0.4
	c0.8-0.2,1.9-0.4,3.2-0.6C63,86.8,63.4,84.8,63.7,82.9L63.7,82.9z M57.9,100.5c1-1.4,2.2-4.1,3.5-7.9c0.3-0.6,0.5-1.3,0.5-1.8
	c-1,0.4-1.9,0.8-2.6,1.1c-0.8,0.3-1.5,0.5-2.3,0.5s-1.6,0-2.6-0.1c-0.9-0.1-2.1-0.3-3.4-0.6c-0.9,1.6-2,3.1-3.4,4.5
	c-3,3.3-6.1,5.3-9.4,5.8c-4.4,0.3-7.2-1-8.4-3.8c-0.9-3.9-0.1-6.7,2.4-8.6c0.1-0.2,0.8-0.6,2.1-1.2c1.3-0.6,3.4-0.8,6.3-0.7
	c1.4,0.1,2.4,0.1,3.1,0.2c0.7,0.1,1.3,0.2,1.8,0.3s1.1,0.2,1.7,0.4c0.6,0.1,1.6,0.3,2.8,0.5l0.6-1.1c0.7-1.9,1.3-4,1.8-6.5
	c-2.3,1.8-4.2,3-5.7,3.5c-1.6,0.7-3.4,1-5.6,1c-2.9,0-5.6-0.7-8.1-2.2c-2.5-1.6-4.5-3.6-5.8-6.2c-1.4-2.7-2.2-5.7-2.2-8.8
	c0-3.2,1.1-7.1,3.4-11.5c-5,0.6-9.5,2.4-13.5,5.3c-4.1,3-7.3,6.7-9.6,11.3c-2.4,4.7-3.5,9.5-3.5,14.6c0,5.2,1.3,10,3.7,14.4
	c2.5,4.4,5.8,7.9,10.1,10.5c4.2,2.6,8.9,3.8,13.9,3.8c4.3,0,8-0.8,11.1-2.3c5.9-2.8,9.7-5.2,11.4-7C54.3,105.5,56.3,103,57.9,100.5
	L57.9,100.5z M54.1,113.2c-5.4,3.1-13.4,4.8-24.1,5.2c-5.5,0-10.6-1.3-15.2-4c-4.6-2.6-8.2-6.4-10.8-11.3c-2.6-4.8-3.9-10.1-3.9-16
	c0-4,0.6-7.8,1.9-11.4c1.4-3.5,3.3-6.6,5.8-9.4c2.5-2.8,5.6-5.1,9.3-7c4.5-2.3,8.6-3.5,12.1-3.5c2.2-2.7,4.9-4.9,7.9-6.5
	c3.1-1.5,6.4-2.3,10-2.3c2.2,0,4.4,0.3,6.7,0.9c2.1,0.5,4.1,1.3,6,2.6c1.9,1.2,3.6,2.6,4.9,4.2c3.6,4.1,5.6,10,6.1,17.7v2.2v1.8
	c0,5.6-0.4,10.2-1.4,13.8C66.7,101,61.5,108.7,54.1,113.2L54.1,113.2z M79.3,97.8c0-0.7-0.1-1.2-0.4-1.7c-0.3-0.4-0.6-0.7-1-0.7
	c-0.6,0-1.1,0.7-1.6,2l-1.3,3.8c-1.1,3-1.6,5.6-1.8,7.6c0,0.4,0.1,0.7,0.3,1c0.2,0.3,0.4,0.5,0.7,0.5c0.5,0,1.1-0.4,1.7-1.3
	c0.5-0.8,1.1-2,1.7-3.6c0.2-0.6,0.5-1.9,1.1-3.7C79.1,99.9,79.3,98.6,79.3,97.8L79.3,97.8z M73.1,122.1l2.4-9.1
	c-2.1,0.6-3.7,1.7-5,3.3s-2,3.3-2,5.1c0,1,0.3,1.9,0.7,2.5c0.4,0.7,1,1,1.7,1c0.5,0,0.9-0.2,1.2-0.7
	C72.5,123.8,72.8,123.1,73.1,122.1z M79.4,111l-2.6,9.3c-0.5,1.6-1.2,3-2.1,4c-1,1-2.1,1.5-3.3,1.5c-1.1,0-2-0.4-2.6-1.2
	c-0.7-0.8-1-1.9-1-3.2c0-2.2,0.7-4,2-5.6c1.4-1.6,3.4-2.9,6-3.8l0.6-2.2c-0.8,1-1.7,1.5-2.5,1.5c-0.9,0-1.7-0.5-2.4-1.5
	c-0.7-1-1-2.2-1-3.6c0-1.8,0.3-3.6,1-5.4c0.7-1.9,1.6-3.4,2.8-4.6c1.1-1.2,2.3-1.8,3.3-1.8c0.6,0,1,0.2,1.4,0.5c0.4,0.4,0.7,1,1,1.9
	l0.5-2c0.5,0.1,1.1,0.1,1.6,0.1s1.1,0,1.7-0.1l-4.1,15c0.9-0.7,1.7-1.6,2.4-2.7c0.7-1,1.5-2.6,2.4-4.9l0.7,0.3l-0.3,0.7
	c-0.7,2-1.6,3.6-2.4,4.8C81.7,109.1,80.7,110.2,79.4,111L79.4,111z M87.2,105.5c0.9,0,1.7-0.2,2.3-0.5c0.6-0.4,1.1-0.9,1.6-1.7
	c0.4-0.7,0.9-1.7,1.3-3s0.5-2.4,0.5-3.3c0-0.4,0-0.6-0.1-0.8s-0.2-0.4-0.4-0.6c-0.1-0.1-0.3-0.2-0.6-0.2c-0.7,0-1.5,1.1-2.3,3.3
	C88.4,101,87.7,103.3,87.2,105.5L87.2,105.5z M95.5,102.1l0.7,0.3c-0.8,2-1.5,3.6-2.1,4.7c-1.6,2.8-3.5,4.3-5.8,4.3
	c-1.2,0-2.3-0.5-3.1-1.5c-0.8-0.9-1.3-2.1-1.3-3.7c0-1.7,0.4-3.5,1.2-5.3c0.7-1.9,1.7-3.4,2.9-4.6c1.2-1.2,2.3-1.8,3.4-1.8
	c1,0,1.7,0.3,2.3,1.1c0.6,0.7,0.9,1.6,0.9,2.8c0,1.3-0.3,2.6-0.9,3.9c-0.6,1.2-1.4,2.2-2.4,2.9s-2.3,1.1-4.1,1.3
	c-0.1,0.8-0.2,1.4-0.2,1.8c0,1.6,0.6,2.4,1.7,2.4c2.3,0,4.5-2.6,6.6-7.7L95.5,102.1L95.5,102.1z M110.2,101.7
	c0.1-0.2,0.3-0.7,0.7-1.4c0.4-0.7,1-1.7,1.7-3l0.3-0.7l0.6-2.1c0.3,0,0.6,0.1,0.9,0.1s0.6,0,0.9,0c0.2,0,0.5,0,0.7,0
	c0.3,0,0.5-0.1,0.7-0.1l-0.3,1.3c-0.2,1-0.4,1.8-0.6,2.4c-0.2,0.6-0.3,1-0.4,1.2s-0.2,0.4-0.2,0.6c0,0.2-0.1,0.4-0.1,0.6
	c-0.1,0.1-0.2,0.3-0.2,0.6c-0.1,0.4-0.1,0.6-0.1,0.6c-0.2,0.8-0.4,1.6-0.6,2.3s-0.4,1.4-0.6,2s-0.3,1.1-0.4,1.4
	c-0.1,0.3-0.2,0.5-0.2,0.6c-0.1,0.5-0.2,0.9-0.2,1.1c0,0.6,0.3,0.9,0.9,0.9c0.7,0,1.4-0.6,2.1-1.8c0.4-0.6,0.8-1.4,1.2-2.4
	c0.5-1,1-2.3,1.6-3.9l0.7,0.3l-0.3,0.9c-0.4,1.1-0.8,2.1-1.2,2.9c-0.4,0.8-0.7,1.5-1,2.1c-0.6,1.2-1.2,2-1.8,2.4
	c-0.5,0.4-1.1,0.7-1.8,0.7c-0.9,0.2-1.7,0-2.5-0.5c-0.5-0.4-0.7-1.4-0.7-3c0.2-2.2,1-5.4,2.4-9.5c-0.7,1.5-1.3,2.9-1.9,4.2l-0.4,0.8
	c-0.4,1.1-0.8,2.1-1.2,2.9c-0.4,0.8-0.7,1.5-1,2.1c-0.6,1.2-1.2,2-1.8,2.4c-0.5,0.4-1.1,0.7-1.8,0.7c-0.9,0.2-1.7,0-2.5-0.5
	c-0.5-0.4-0.7-1.4-0.7-3c0.2-2.2,1-5.4,2.4-9.5c-0.7,1.6-1.4,3-1.9,4.1s-0.9,1.9-1.2,2.5c-0.4,0.7-0.7,1.4-1,2s-0.6,1.1-0.9,1.6
	c-0.2,0.4-0.4,0.8-0.6,1.2c-0.2,0.3-0.4,0.6-0.7,0.9c-0.5,0.6-1,1-1.4,1.3c-1.1,0.6-1.9,0.7-2.4,0.3s-0.8-1-0.7-2.1
	c0-0.8,0.3-1.8,0.8-3.3c0.3-1.1,0.8-2.5,1.4-4.4l0.6-0.1c-0.4,1.2-0.7,2.4-0.9,3.6c-0.4,1.5-0.7,2.6-0.7,3.3c-0.2,1.7,0.2,2.3,1,1.9
	c0.8-0.1,1.6-0.7,2.3-1.7c0.4-0.8,1.2-2.2,2.3-4.5c0.7-1.3,1.3-2.6,2-3.8c0.6-1.2,1.3-2.5,2.1-3.7l0.3-0.7l0.6-2.1
	c0.3,0,0.6,0.1,0.9,0.1s0.6,0,0.9,0c0.2,0,0.5,0,0.7,0c0.3,0,0.5-0.1,0.7-0.1l-0.3,1.3c-0.2,1-0.4,1.8-0.6,2.4s-0.3,1-0.4,1.2
	s-0.2,0.4-0.2,0.6c0,0.2-0.1,0.4-0.1,0.6c-0.1,0.1-0.2,0.3-0.2,0.6c-0.1,0.4-0.1,0.6-0.1,0.6c-0.2,0.8-0.4,1.6-0.6,2.3
	s-0.4,1.4-0.6,2s-0.3,1.1-0.4,1.4c-0.1,0.3-0.2,0.5-0.2,0.6c-0.1,0.5-0.2,0.9-0.2,1.1c0,0.6,0.3,0.9,0.9,0.9c0.7,0,1.4-0.6,2.1-1.8
	c0.4-0.6,0.8-1.4,1.2-2.4C108.9,104.9,109.5,103.5,110.2,101.7L110.2,101.7z"/>
<path id="path58" class="st16" d="M1.7,135.3H0.8v-4.4h-1.9c0,0.3,0,0.5,0,0.7s0,0.4,0,0.6c0,0.5-0.1,0.9-0.1,1.2s-0.1,0.6-0.2,0.8
	s-0.2,0.3-0.2,0.5c-0.1,0.1-0.2,0.2-0.3,0.3c-0.1,0.1-0.2,0.2-0.3,0.2s-0.3,0.1-0.4,0.1c-0.1,0-0.1,0-0.2,0c-0.1,0-0.2,0-0.2,0v-0.8
	l0,0h0.1h0.1c0.1,0,0.1,0,0.2,0c0.1,0,0.1-0.1,0.2-0.1c0.2-0.2,0.3-0.4,0.4-0.8c0.1-0.4,0.2-0.9,0.2-1.6c0-0.3,0-0.5,0-0.9
	c0-0.3,0-0.7,0-1h3.5L1.7,135.3L1.7,135.3z M7.4,135.2H6.5v-0.5c-0.1,0.1-0.2,0.1-0.3,0.2c-0.1,0.1-0.3,0.2-0.4,0.2
	c-0.1,0.1-0.3,0.1-0.5,0.2c-0.2,0-0.4,0.1-0.7,0.1c-0.5,0-0.9-0.2-1.2-0.5s-0.5-0.7-0.5-1.2c0-0.4,0.1-0.7,0.2-0.9
	c0.2-0.2,0.4-0.4,0.7-0.6c0.3-0.1,0.7-0.2,1.1-0.3s0.9-0.1,1.4-0.1v-0.1c0-0.2,0-0.4-0.1-0.5S6,131,5.9,130.9
	c-0.1-0.1-0.3-0.1-0.4-0.1c-0.2,0-0.4,0-0.5,0c-0.2,0-0.5,0-0.8,0.1s-0.6,0.1-0.9,0.3l0,0v-0.9c0.2,0,0.4-0.1,0.7-0.2
	c0.3-0.1,0.6-0.1,0.9-0.1c0.4,0,0.7,0,0.9,0.1c0.3,0.1,0.5,0.2,0.7,0.3s0.3,0.3,0.4,0.5s0.2,0.5,0.2,0.8L7.4,135.2L7.4,135.2z
	 M6.6,134v-1.4c-0.3,0-0.6,0-0.9,0.1c-0.4,0-0.6,0.1-0.8,0.1c-0.2,0.1-0.4,0.2-0.6,0.3C4,133.2,4,133.4,4,133.7s0.1,0.5,0.3,0.7
	c0.2,0.1,0.5,0.2,0.8,0.2s0.6-0.1,0.8-0.2C6.1,134.3,6.4,134.2,6.6,134L6.6,134z M13.4,135.2h-0.9v-2.3H9.9v2.3H9v-5.1h0.9v2.1h2.6
	v-2.1h0.9V135.2L13.4,135.2z M19.8,136.4H19v-1.2h-3.9v1.2h-0.8v-2h0.6c0.4-0.6,0.6-1.3,0.8-2.1s0.3-1.6,0.3-2.4h3.2v4.4h0.6
	L19.8,136.4L19.8,136.4z M18.3,134.5v-3.7h-1.5c0,0.8-0.2,1.5-0.3,2.1c-0.2,0.6-0.4,1.2-0.7,1.6L18.3,134.5L18.3,134.5z M27.5,135.2
	h-6.6v-5.1h0.9v4.4h2v-4.4h0.9v4.4h2v-4.4h0.9L27.5,135.2L27.5,135.2z M33.2,135.2h-0.9v-0.5c-0.1,0.1-0.2,0.1-0.3,0.2
	c-0.1,0.1-0.3,0.2-0.4,0.2c-0.1,0.1-0.3,0.1-0.5,0.2c-0.2,0-0.4,0.1-0.7,0.1c-0.5,0-0.9-0.2-1.2-0.5c-0.3-0.3-0.5-0.7-0.5-1.2
	c0-0.4,0.1-0.7,0.2-0.9c0.2-0.2,0.4-0.4,0.7-0.6c0.3-0.1,0.7-0.2,1.1-0.3s0.9-0.1,1.4-0.1v-0.1c0-0.2,0-0.4-0.1-0.5
	c-0.1-0.1-0.2-0.2-0.3-0.3c-0.1-0.1-0.3-0.1-0.4-0.1c-0.2,0-0.4,0-0.5,0c-0.2,0-0.5,0-0.8,0.1s-0.6,0.1-0.9,0.3l0,0v-0.9
	c0.2,0,0.4-0.1,0.7-0.2c0.3-0.1,0.6-0.1,0.9-0.1c0.4,0,0.7,0,0.9,0.1c0.3,0.1,0.5,0.2,0.7,0.3s0.3,0.3,0.4,0.5
	c0.1,0.2,0.2,0.5,0.2,0.8L33.2,135.2L33.2,135.2z M32.4,133.9v-1.4c-0.3,0-0.6,0-0.9,0.1c-0.4,0-0.6,0.1-0.8,0.1
	c-0.2,0.1-0.4,0.2-0.6,0.3s-0.2,0.4-0.2,0.6c0,0.3,0.1,0.5,0.3,0.7c0.2,0.1,0.4,0.2,0.8,0.2c0.3,0,0.6-0.1,0.8-0.2
	C31.9,134.2,32.1,134.1,32.4,133.9L32.4,133.9z M41.4,132.4c0,0.5-0.1,0.9-0.2,1.2c-0.1,0.4-0.3,0.6-0.5,0.9
	c-0.2,0.2-0.4,0.4-0.7,0.5c-0.2,0.1-0.5,0.2-0.8,0.2c-0.2,0-0.4,0-0.5-0.1c-0.2-0.1-0.3-0.1-0.4-0.2v2.1h-0.9v-2.1
	c-0.2,0.1-0.3,0.2-0.5,0.2c-0.1,0.1-0.3,0.1-0.6,0.1c-0.6,0-1.1-0.2-1.4-0.7c-0.4-0.5-0.6-1.1-0.6-1.9c0-0.4,0.1-0.8,0.2-1.2
	c0.1-0.3,0.3-0.6,0.5-0.9c0.2-0.2,0.4-0.4,0.7-0.5s0.5-0.2,0.8-0.2c0.2,0,0.4,0,0.5,0.1c0.2,0.1,0.3,0.1,0.5,0.2v-2.2h0.9v2.2
	c0.1-0.1,0.3-0.2,0.5-0.2c0.2-0.1,0.4-0.1,0.6-0.1c0.6,0,1.1,0.2,1.4,0.7C41.3,131,41.4,131.6,41.4,132.4L41.4,132.4z M40.6,132.5
	c0-0.6-0.1-1-0.3-1.4c-0.2-0.3-0.5-0.5-0.9-0.5c-0.2,0-0.3,0-0.4,0c-0.1,0-0.3,0.1-0.5,0.2v3.4c0.1,0.1,0.3,0.1,0.4,0.2
	c0.1,0,0.2,0.1,0.4,0.1c0.4,0,0.8-0.2,1-0.5C40.4,133.6,40.6,133.2,40.6,132.5z M37.6,134.3v-3.4c-0.1-0.1-0.2-0.1-0.4-0.1
	c-0.1,0-0.3-0.1-0.4-0.1c-0.4,0-0.7,0.2-1,0.5c-0.2,0.3-0.4,0.8-0.4,1.4c0,0.6,0.1,1.1,0.3,1.4c0.2,0.3,0.5,0.5,1,0.5
	c0.2,0,0.3,0,0.5-0.1C37.3,134.4,37.4,134.3,37.6,134.3L37.6,134.3z M46.6,130.7h-1.9v4.4h-0.9v-4.4h-1.9v-0.8h4.6L46.6,130.7
	L46.6,130.7z M51.8,135.1h-0.9v-2.3h-2.6v2.3h-0.9V130h0.9v2.1h2.6V130h0.9V135.1L51.8,135.1z M57.5,135.1h-0.9v-0.5
	c-0.1,0.1-0.2,0.1-0.3,0.2c-0.1,0.1-0.3,0.2-0.4,0.2c-0.1,0.1-0.3,0.1-0.5,0.2c-0.2,0-0.4,0.1-0.7,0.1c-0.5,0-0.9-0.2-1.2-0.5
	s-0.5-0.7-0.5-1.2c0-0.4,0.1-0.7,0.2-0.9c0.2-0.2,0.4-0.4,0.7-0.6c0.3-0.1,0.7-0.2,1.1-0.3c0.4-0.1,0.9-0.1,1.4-0.1v-0.1
	c0-0.2,0-0.4-0.1-0.5s-0.2-0.2-0.3-0.3s-0.3-0.1-0.4-0.1c-0.2,0-0.4,0-0.5,0c-0.2,0-0.5,0-0.8,0.1s-0.6,0.1-0.9,0.3l0,0v-0.9
	c0.2,0,0.4-0.1,0.7-0.2c0.3-0.1,0.6-0.1,0.9-0.1c0.4,0,0.7,0,0.9,0.1c0.3,0.1,0.5,0.2,0.7,0.3s0.3,0.3,0.4,0.5
	c0.1,0.2,0.2,0.5,0.2,0.8L57.5,135.1L57.5,135.1z M56.6,133.8v-1.4c-0.3,0-0.6,0-0.9,0.1c-0.4,0-0.6,0.1-0.8,0.1
	c-0.2,0.1-0.4,0.2-0.6,0.3c-0.2,0.1-0.2,0.4-0.2,0.6c0,0.3,0.1,0.5,0.3,0.7c0.2,0.1,0.5,0.2,0.8,0.2s0.6-0.1,0.8-0.2
	C56.2,134.1,56.4,134,56.6,133.8L56.6,133.8z M63.1,135.1h-0.9v-2h-1l-1.6,2h-1l1.7-2.1c-0.4-0.1-0.8-0.3-1-0.6s-0.3-0.6-0.3-1
	c0-0.3,0.1-0.5,0.2-0.7c0.1-0.2,0.3-0.3,0.5-0.5c0.2-0.1,0.4-0.2,0.6-0.2c0.2,0,0.5-0.1,0.8-0.1h2V135.1L63.1,135.1z M62.2,132.3
	v-1.7h-1.1c-0.2,0-0.4,0-0.5,0s-0.2,0.1-0.3,0.1c-0.1,0.1-0.2,0.2-0.3,0.3s-0.1,0.2-0.1,0.4s0,0.3,0.1,0.4c0,0.1,0.1,0.2,0.2,0.3
	c0.1,0.1,0.3,0.1,0.4,0.2c0.2,0,0.3,0,0.5,0H62.2L62.2,132.3z M35.9,146.3c-0.4,0.2-0.7,0.3-0.9,0.3c-0.3,0.1-0.5,0.1-0.8,0.1
	c-0.4,0-0.7-0.1-1-0.2c-0.3-0.1-0.6-0.3-0.8-0.5s-0.4-0.5-0.5-0.8c-0.1-0.3-0.2-0.7-0.2-1.2c0-0.8,0.2-1.5,0.7-2s1.1-0.7,1.9-0.7
	c0.3,0,0.6,0,0.9,0.1c0.3,0.1,0.6,0.2,0.8,0.3v1h-0.1c-0.3-0.2-0.6-0.4-0.8-0.5c-0.3-0.1-0.5-0.2-0.8-0.2c-0.5,0-0.9,0.2-1.2,0.5
	s-0.4,0.8-0.4,1.4c0,0.6,0.1,1.1,0.4,1.4c0.3,0.3,0.7,0.5,1.2,0.5c0.2,0,0.4,0,0.5-0.1c0.2,0,0.3-0.1,0.5-0.2
	c0.1-0.1,0.2-0.1,0.4-0.2c0.1-0.1,0.2-0.1,0.3-0.2h0.1L35.9,146.3L35.9,146.3z M40.8,142.2h-1.9v4.4H38v-4.4h-1.9v-0.8h4.6
	L40.8,142.2L40.8,142.2z M46.2,141.4l-3,7h-0.9l0.9-2.1l-2.1-4.9H42l1.6,3.8l1.6-3.8H46.2L46.2,141.4z M52,147.8h-0.8v-1.2h-3.9v1.2
	h-0.8v-2h0.6c0.4-0.6,0.6-1.3,0.8-2.1s0.3-1.6,0.3-2.4h3.2v4.4H52L52,147.8L52,147.8z M50.5,145.8v-3.7H49c0,0.8-0.2,1.5-0.3,2.1
	c-0.2,0.6-0.4,1.2-0.7,1.6L50.5,145.8L50.5,145.8z M57.5,146.5h-0.9v-3.9l-2.7,3.9h-0.8v-5.1H54v3.8l2.7-3.8h0.8V146.5L57.5,146.5z
	 M63.1,146.5h-0.9v-2h-1l-1.6,2h-1l1.7-2.1c-0.4-0.1-0.8-0.3-1-0.6s-0.3-0.6-0.3-1c0-0.3,0.1-0.5,0.2-0.7c0.1-0.2,0.3-0.3,0.5-0.5
	c0.2-0.1,0.4-0.2,0.6-0.2c0.2,0,0.5-0.1,0.8-0.1h2V146.5L63.1,146.5z M62.3,143.8v-1.7h-1.1c-0.2,0-0.4,0-0.5,0s-0.2,0.1-0.3,0.1
	c-0.1,0.1-0.2,0.2-0.3,0.3s-0.1,0.2-0.1,0.4s0,0.3,0.1,0.4c0,0.1,0.1,0.2,0.2,0.3c0.1,0.1,0.3,0.1,0.4,0.2c0.2,0,0.3,0,0.5,0H62.3
	L62.3,143.8z"/>
</svg>
