<svg height="512pt" viewBox="0 -76 512 512" width="512pt" xmlns="http://www.w3.org/2000/svg"><path d="m402.070312 180h-10c-5.507812 0-10 4.488281-10 10s4.492188 10 10 10h10c5.511719 0 10-4.488281 10-10s-4.488281-10-10-10zm0 0"/><path d="m352.070312 180c-5.507812 0-10 4.488281-10 10s4.492188 10 10 10c5.511719 0 10-4.488281 10-10s-4.488281-10-10-10zm0 0"/><path d="m272.070312 220h-30c-5.507812 0-10 4.488281-10 10s4.492188 10 10 10h30c5.511719 0 10-4.488281 10-10s-4.488281-10-10-10zm0 0"/><path d="m202.070312 220c-5.507812 0-10 4.488281-10 10s4.492188 10 10 10c5.511719 0 10-4.488281 10-10s-4.488281-10-10-10zm0 0"/><path d="m494.046875 180.324219-43.082031-35.917969-11.625-46.535156c-5.574219-22.296875-25.515625-37.871094-48.5-37.871094h-68.839844v-50c0-5.523438-4.40625-10-9.929688-10h-302c-5.519531 0-10.070312 4.476562-10.070312 10v300c0 5.523438 4.550781 10 10.070312 10h31.007813c4.644531 22.796875 24.847656 40 48.992187 40 24.148438 0 44.351563-17.203125 48.996094-40h234.011719c4.644531 22.796875 24.847656 40 48.992187 40 24.148438 0 44.351563-17.203125 48.996094-40h31.003906c5.523438 0 9.929688-4.476562 9.929688-10v-91.265625c0-14.882813-6.519531-28.882813-17.953125-38.410156zm-132.046875-100.324219h28.839844c5.171875 0 10.089844 1.3125 14.390625 3.660156 7.164062 3.914063 12.625 10.699219 14.714843 19.0625l9.320313 37.277344h-67.265625zm-320.921875 220h-21.078125v-20h30.097656c-4.375 5.816406-7.515625 12.613281-9.019531 20zm48.992187 40c-16.539062 0-30-13.457031-30-30s13.460938-30 30-30c16.542969 0 30 13.457031 30 30s-13.457031 30-30 30zm-70.070312-80v-240h282v240zm362.097656 20c-4.375 5.816406-7.507812 12.613281-9.015625 20h-234.019531c-1.507812-7.386719-4.640625-14.183594-9.015625-20zm39.972656 60c-16.539062 0-30-13.457031-30-30s13.460938-30 30-30c16.542969 0 30 13.457031 30 30s-13.457031 30-30 30zm69.929688-40h-20.933594c-1.503906-7.386719-4.644531-14.183594-9.019531-20h29.953125zm0-40h-170v-180h20v70c0 5.523438 4.550781 10 10.070312 10h86.378907l10.550781 8.851562v42.148438c0 16.542969 13.53125 30 30.070312 30h12.929688zm0-39h-12.929688c-5.511718 0-10.070312-4.484375-10.070312-10v-25.484375l12.203125 10.171875c6.863281 5.71875 10.796875 14.117188 10.796875 23.046875zm0 0"/><path d="m432.070312 310c0 5.523438-4.476562 10-10 10-5.519531 0-10-4.476562-10-10s4.480469-10 10-10c5.523438 0 10 4.476562 10 10zm0 0"/><path d="m100.070312 310c0 5.523438-4.476562 10-10 10-5.519531 0-10-4.476562-10-10s4.480469-10 10-10c5.523438 0 10 4.476562 10 10zm0 0"/></svg>