<?xml version="1.0" encoding="iso-8859-1"?>
<!-- Generator: Adobe Illustrator 19.0.0, SVG Export Plug-In . SVG Version: 6.00 Build 0)  -->
<svg version="1.1" id="Layer_1" xmlns="http://www.w3.org/2000/svg" xmlns:xlink="http://www.w3.org/1999/xlink" x="0px" y="0px"
	 viewBox="0 0 512 512" style="enable-background:new 0 0 512 512;" xml:space="preserve">
<g>
	<g>
		<path d="M510.957,349.086L428.141,39.432c-3.584-13.383-15.3-22.375-29.159-22.375c-13.856,0-25.574,8.992-29.158,22.378
			L301.872,293.5c-5.231-3-10.854-5.382-16.778-7.05c7.878-18.389,12.009-38.33,12.009-58.509
			c0-81.909-66.637-148.545-148.545-148.545C66.642,79.396,0,146.033,0,227.941c0,77.991,60.421,142.134,136.917,148.091v95.638
			H98.455c-6.426,0-11.636,5.21-11.636,11.636s5.211,11.636,11.636,11.636h320.679c6.426,0,11.636-5.21,11.636-11.636
			s-5.211-11.636-11.636-11.636h-12.836v-84.602h75.509c9.456,0,18.18-4.302,23.938-11.803
			C511.502,367.764,513.402,358.222,510.957,349.086z M148.553,186.595c-6.426,0-11.636,5.21-11.636,11.636v65.419
			c0,0.003,0,0.008,0,0.012v21.43l-27.949-27.948c-4.545-4.544-11.911-4.544-16.457,0c-4.544,4.544-4.544,11.912,0,16.456
			l44.405,44.405v34.662c-63.643-5.89-113.643-59.575-113.643-124.726c0-69.075,56.203-125.272,125.285-125.272
			c69.075,0,125.272,56.197,125.272,125.272c0,19.431-4.53,38.593-13.126,55.829c-34.981,1.943-63.592,28.097-69.346,61.941
			c-10.06,3.661-20.489,5.987-31.169,6.965v-39.484c0-0.003,0-0.008,0-0.012v-44.704l32.451-32.451
			c4.544-4.544,4.544-11.912,0-16.456c-4.545-4.544-11.911-4.544-16.457,0l-15.994,15.994v-37.333
			C160.189,191.804,154.978,186.595,148.553,186.595z M254.413,471.671h-94.226v-95.635h0.001
			c10.582-0.816,20.966-2.755,31.071-5.789c5.205,32.05,30.893,57.304,63.153,61.857V471.671z M264.887,333.092
			c-5.784,0-10.473,4.688-10.473,10.473v18.433l-4.111-4.111c-4.091-4.09-10.72-4.09-14.812,0c-4.09,4.09-4.09,10.72,0,14.811
			l18.923,18.923v16.885c-23.298-4.849-40.858-25.538-40.858-50.255c0-28.304,23.027-51.331,51.331-51.331
			c0.806,0,2.607,0.071,2.708,0.072c27.051,1.413,48.623,23.864,48.623,51.259c0,24.716-17.56,45.405-40.858,50.255v-21.219
			c0-0.003,0-0.008,0-0.012v-43.71C275.36,337.781,270.672,333.092,264.887,333.092z M383.026,471.671L383.026,471.671H275.36
			v-39.567c26.361-3.721,48.339-21.257,58.336-45.037h49.331V471.671z M487.285,361.094c-0.774,1.009-2.515,2.7-5.477,2.7h-75.509
			v-28.26c0-0.003,0-0.008,0-0.012v-35.42l25.73-25.73c4.544-4.544,4.544-11.912,0-16.457c-4.545-4.544-11.911-4.544-16.457,0
			l-9.274,9.274v-32.388c0-6.427-5.211-11.636-11.636-11.636c-6.426,0-11.636,5.21-11.636,11.636v60.476c0,0.004,0,0.008,0,0.012
			v12.147l-18.986-18.987c-4.544-4.544-11.91-4.544-16.457,0c-4.544,4.544-4.544,11.912,0,16.456l35.443,35.443v23.446h-43.764
			c0.135-1.833,0.228-3.677,0.228-5.545c0-18.46-6.754-35.361-17.901-48.401l70.716-264.397c1.237-4.623,5.082-5.122,6.676-5.122
			c1.595,0,5.44,0.499,6.677,5.119L488.474,355.1C489.243,357.965,488.058,360.085,487.285,361.094z"/>
	</g>
</g>
<g>
	<g>
		<path d="M482.827,471.671h-18.541c-6.426,0-11.636,5.209-11.636,11.636c0,6.427,5.211,11.636,11.636,11.636h18.541
			c6.426,0,11.636-5.21,11.636-11.636C494.463,476.88,489.252,471.671,482.827,471.671z"/>
	</g>
</g>
<g>
	<g>
		<path d="M299.498,109.615c-2.61-3.32-5.363-6.592-8.184-9.726c-4.298-4.779-11.656-5.167-16.433-0.87
			c-4.778,4.298-5.166,11.656-0.869,16.434c2.477,2.754,4.898,5.632,7.195,8.55c2.296,2.918,5.706,4.443,9.153,4.443
			c2.518,0,5.055-0.813,7.187-2.491C302.598,121.981,303.472,114.665,299.498,109.615z"/>
	</g>
</g>
<g>
	<g>
		<path d="M256.85,69.702c-32.096-21.988-69.495-33.607-108.175-33.607c-0.04,0-0.086,0-0.127,0
			c-6.425,0.003-11.633,5.218-11.628,11.643c0.003,6.425,5.212,11.629,11.635,11.629c0.037,0.002,0.079,0,0.12,0
			c33.963,0,66.819,10.211,95.023,29.533c2.011,1.378,4.298,2.037,6.566,2.037c3.71,0,7.355-1.77,9.61-5.061
			C263.506,80.576,262.153,73.333,256.85,69.702z"/>
	</g>
</g>
<g>
</g>
<g>
</g>
<g>
</g>
<g>
</g>
<g>
</g>
<g>
</g>
<g>
</g>
<g>
</g>
<g>
</g>
<g>
</g>
<g>
</g>
<g>
</g>
<g>
</g>
<g>
</g>
<g>
</g>
</svg>
