<?xml version="1.0" encoding="utf-8"?>
<!-- Generator: Adobe Illustrator 23.0.0, SVG Export Plug-In . SVG Version: 6.00 Build 0)  -->
<svg version="1.1" id="Capa_1" xmlns="http://www.w3.org/2000/svg" xmlns:xlink="http://www.w3.org/1999/xlink" x="0px" y="0px"
	 viewBox="0 0 512 512" style="enable-background:new 0 0 512 512;" xml:space="preserve">
<g>
	<g>
		<path class="st0" d="M502,176.3c5.5,0,10-4.5,10-10v-65.8c0-5.5-4.5-10-10-10h-54c-8.9,0-16.4,5.8-19,13.9H288.2
			c-0.1-0.1-0.2-0.1-0.3-0.2c-27.2-12.3-57-15.8-86.2-10.1l-80.8,15.8H84c-0.3-10.7-9.2-19.4-20-19.4H10c-5.5,0-10,4.5-10,10v64.3
			c0,5.5,4.5,10,10,10s10-4.5,10-10v-54.3h44v189.6H20v-53.3c0-5.5-4.5-10-10-10s-10,4.5-10,10v63.3c0,5.5,4.5,10,10,10h54
			c11,0,20-9,20-20V300c4.6,1.3,8.9,3.4,12.7,6.4l4.7,3.6c0.9,7.9,4.7,15.5,11.4,21c5.9,4.9,13.1,7.2,20.2,7.2c0.7,0,1.4,0,2.1-0.1
			c1,8.1,5,15.4,11.3,20.6c5.9,4.9,13.1,7.2,20.2,7.2c0.7,0,1.4,0,2.1-0.1c1,8.1,5,15.4,11.3,20.6c5.8,4.7,12.8,7.3,20.2,7.3
			c0.7,0,1.5,0,2.2-0.1c1,7.8,4.8,15.2,11.3,20.6c5.8,4.7,12.8,7.3,20.2,7.3c1,0,2.1-0.1,3.1-0.2c8.5-0.8,16.1-4.9,21.5-11.4
			l8.1-9.9c2.4-2.9,4.2-6.1,5.4-9.5c4.7,2.5,10,3.9,15.5,3.9c0.2,0,0.3,0,0.5,0c8.8-0.1,17.1-3.7,23.3-10c3.3-3.3,5.6-7.2,7.2-11.3
			l3.5,3.4c6.4,6.2,14.8,9.4,23.1,9.4c8.6,0,17.3-3.4,23.8-10c3.7-3.8,6.3-8.2,7.8-13c4.6,2.3,9.7,3.4,14.7,3.4
			c8.6,0,17.3-3.4,23.8-10c6.2-6.3,9.5-14.7,9.4-23.6c-0.1-8.8-3.7-17.1-10-23.3l-6.9-6.8l20.5-11.1v8.6c0,11,9,20,20,20h54
			c5.5,0,10-4.5,10-10v-66.3c0-5.5-4.5-10-10-10s-10,4.5-10,10v56.3h-44v-25.3c0,0,0-0.1,0-0.1V110.5h44v55.8
			C492,171.9,496.5,176.3,502,176.3z M150.2,304.1l-8.1,9.9c-4.1,5-11.6,5.7-16.6,1.6c-5-4.1-5.7-11.6-1.6-16.6l8.1-9.9
			c2-2.4,4.8-3.9,8-4.2c0.4,0,0.8-0.1,1.2-0.1c2.7,0,5.4,0.9,7.5,2.7C153.6,291.6,154.4,299.1,150.2,304.1z M183.9,331.8l-8.1,9.9
			c-4.1,5-11.6,5.7-16.6,1.6c-2.4-2-3.9-4.8-4.2-8c-0.3-3.1,0.6-6.2,2.6-8.6l8.1-9.9c2-2.4,4.8-3.9,8-4.2c0.4,0,0.8-0.1,1.2-0.1
			c2.7,0,5.4,0.9,7.5,2.7c2.4,2,3.9,4.8,4.2,8C186.8,326.3,185.9,329.4,183.9,331.8z M217.6,359.6l-8.1,9.9c-2,2.4-4.8,3.9-8,4.2
			c-3.1,0.3-6.2-0.6-8.6-2.6c-2.4-2-3.9-4.8-4.2-8c-0.3-3.1,0.6-6.2,2.6-8.6l8.1-9.9c2.3-2.8,5.7-4.3,9.1-4.3c2.6,0,5.3,0.9,7.5,2.7
			C221,347.1,221.7,354.5,217.6,359.6z M251.2,387.3l-8.1,9.9c-2,2.4-4.8,3.9-8,4.2c-3.1,0.3-6.2-0.6-8.6-2.6
			c-5-4.1-5.7-11.6-1.6-16.6l8.1-9.9c2-2.4,4.8-3.9,8-4.2c0.4,0,0.8-0.1,1.2-0.1c2.7,0,5.4,0.9,7.5,2.7c2.4,2,3.9,4.8,4.2,8
			C254.2,381.8,253.2,384.9,251.2,387.3z M400.7,342.3c-5,5.2-13.4,5.3-18.5,0.3L349,310.3c0,0-0.1-0.1-0.1-0.1l-32.7-31.7
			c-4-3.9-10.3-3.8-14.1,0.2c-3.8,4-3.8,10.3,0.2,14.1l51.9,50.4c5.2,5,5.3,13.4,0.3,18.5c-5,5.2-13.4,5.3-18.5,0.3L284,311.6
			c-0.1-0.1-0.2-0.2-0.3-0.3l-24.9-24.2c-4-3.8-10.3-3.8-14.1,0.2c-3.8,4-3.8,10.3,0.2,14.1l51.9,50.4c5.2,5,5.3,13.4,0.3,18.5
			c-2.4,2.5-5.7,3.9-9.2,4c-3.5,0.1-6.8-1.3-9.3-3.7l-14.5-14.1c-0.3-0.3-0.7-0.6-1-0.9c-0.2-0.2-0.4-0.3-0.6-0.5
			c-6.5-5.4-14.5-7.7-22.4-7.2c-1-7.8-4.8-15.2-11.3-20.6c-6.5-5.4-14.5-7.7-22.3-7.2c-1-8.1-5-15.4-11.3-20.6s-14.2-7.7-22.4-7.2
			c-1-7.8-4.8-15.2-11.3-20.6c-6.6-5.4-14.8-7.9-23.3-7.1c-8.5,0.8-16.1,4.9-21.5,11.4l-8.1,9.9c-0.7,0.8-1.3,1.7-1.9,2.6
			c-6.8-4.7-14.5-7.8-22.5-9.3V129.9h37.9c0.6,0,1.3-0.1,1.9-0.2l81.7-15.9c13.9-2.7,27.9-3,41.6-0.9c-10.3,4.7-19.9,11.2-28.2,19.4
			l-75.7,74.9c-13.7,13.6-14,35.9-0.6,49.8c6.9,7.1,16.1,10.8,25.5,10.8c6,0,12-1.5,17.4-4.6l79.3-44.8h27.4l108.2,105.4
			c2.5,2.4,3.9,5.7,4,9.2C404.5,336.4,403.2,339.8,400.7,342.3z M428,268.8L392.5,288l-71.5-69.7h7c5.5,0,10-4.5,10-10
			s-4.5-10-10-10h-65.7c-1.7,0-3.4,0.4-4.9,1.3l-81.6,46.1c-6.1,3.5-13.8,2.3-18.7-2.7c-5.8-6-5.7-15.8,0.2-21.7l75.7-74.9
			c14.3-14.2,33.3-22,53.5-22H428V268.8z"/>
	</g>
</g>
<g>
	<g>
		<path class="st1" d="M509.1,198.3c-1.9-1.9-4.4-2.9-7.1-2.9s-5.2,1.1-7.1,2.9c-1.9,1.9-2.9,4.4-2.9,7.1c0,2.6,1.1,5.2,2.9,7.1
			c1.9,1.9,4.4,2.9,7.1,2.9s5.2-1.1,7.1-2.9c1.9-1.9,2.9-4.4,2.9-7.1C512,202.7,510.9,200.1,509.1,198.3z"/>
	</g>
</g>
<g>
	<g>
		<path class="st1" d="M17.1,198.3c-1.9-1.9-4.4-2.9-7.1-2.9s-5.2,1.1-7.1,2.9c-1.9,1.9-2.9,4.4-2.9,7.1c0,2.6,1.1,5.2,2.9,7.1
			c1.9,1.9,4.4,2.9,7.1,2.9s5.2-1.1,7.1-2.9c1.9-1.9,2.9-4.4,2.9-7.1C20,202.7,18.9,200.1,17.1,198.3z"/>
	</g>
</g>
</svg>
